<?xml version="1.0" standalone="no"?>
<!DOCTYPE svg PUBLIC "-//W3C//DTD SVG 20010904//EN"
 "http://www.w3.org/TR/2001/REC-SVG-20010904/DTD/svg10.dtd">
<svg version="1.0" xmlns="http://www.w3.org/2000/svg"
 width="432.000000pt" height="64.000000pt" viewBox="0 0 432.000000 64.000000"
 preserveAspectRatio="xMidYMid meet">

<g transform="translate(0.000000,64.000000) scale(0.100000,-0.100000)"
fill="#000000" stroke="none">
<path d="M400 594 c0 -17 -3 -51 -6 -76 -6 -44 -7 -45 -33 -35 -60 22 -114
-14 -141 -93 -18 -54 -19 -55 -59 -58 -51 -4 -44 -22 9 -22 35 0 39 -3 50 -35
16 -48 52 -89 120 -135 50 -34 58 -44 65 -82 l8 -43 8 54 c6 43 14 61 45 92
21 21 43 39 49 39 5 1 29 25 53 54 39 50 47 55 100 64 40 6 47 10 25 11 -57 2
-63 8 -56 56 16 121 -78 193 -170 131 l-35 -24 -6 21 c-3 12 -6 36 -6 52 0 17
-5 37 -10 45 -7 11 -10 8 -10 -16z m166 -105 c13 -14 19 -36 19 -68 0 -71 -5
-77 -59 -73 -25 2 -46 9 -46 14 0 6 15 29 33 51 33 42 27 42 -29 0 -17 -13
-33 -23 -36 -23 -3 0 -8 16 -10 36 -3 30 1 39 25 60 35 30 78 31 103 3z m-198
-31 c13 -13 17 -68 4 -68 -4 0 -23 11 -42 25 -45 33 -47 32 -16 -9 14 -19 26
-39 26 -44 0 -9 -80 -23 -88 -16 -10 7 13 68 35 94 26 31 60 39 81 18z m-31
-168 c11 0 9 -7 -7 -30 -27 -37 -36 -38 -55 0 -21 40 -19 43 16 36 17 -3 38
-6 46 -6z m197 -2 c-20 -36 -26 -39 -46 -21 -20 18 -20 18 4 24 38 11 50 10
42 -3z m-146 -126 c-2 -8 -16 -2 -38 17 l-35 31 30 26 30 27 7 -44 c5 -24 7
-50 6 -57z m82 82 c11 -13 9 -19 -11 -40 l-25 -24 4 40 c4 43 12 49 32 24z"/>
<path d="M1214 500 c-30 -12 -64 -58 -64 -86 0 -59 34 -89 130 -114 25 -7 53
-19 63 -27 23 -22 22 -58 -4 -84 -18 -18 -30 -21 -71 -17 -28 3 -62 14 -78 26
-25 19 -30 19 -41 6 -15 -19 8 -38 69 -55 96 -27 182 18 182 97 0 47 -33 79
-106 99 -78 23 -104 40 -104 70 0 59 71 83 142 46 31 -15 38 -16 42 -4 9 22
-1 31 -42 43 -44 12 -89 12 -118 0z"/>
<path d="M1565 493 c-46 -24 -66 -45 -86 -88 -48 -105 13 -241 116 -261 78
-14 192 28 165 61 -9 11 -18 9 -47 -11 -118 -80 -258 60 -199 199 35 81 128
112 197 64 27 -18 40 -22 48 -14 19 19 13 27 -31 47 -52 24 -122 25 -163 3z"/>
<path d="M2075 494 c-45 -23 -66 -45 -86 -89 -44 -96 1 -219 94 -254 61 -23
163 -7 195 31 10 12 10 18 -2 27 -12 10 -21 8 -46 -11 -89 -65 -210 8 -210
127 0 119 121 192 210 127 25 -19 34 -21 46 -12 23 20 17 30 -28 50 -52 24
-132 26 -173 4z"/>
<path d="M830 325 l0 -175 125 0 c104 0 125 2 125 15 0 12 -18 15 -105 15
l-105 0 0 65 0 65 95 0 c78 0 95 3 95 15 0 12 -17 15 -95 15 l-95 0 0 65 0 65
105 0 c87 0 105 3 105 15 0 13 -21 15 -125 15 l-125 0 0 -175z"/>
<path d="M2402 390 c-80 -49 -80 -181 0 -230 68 -41 159 -16 191 53 60 126
-73 249 -191 177z m123 -34 c64 -64 30 -186 -52 -186 -29 0 -70 38 -79 74 -10
42 4 93 33 116 34 27 69 25 98 -4z"/>
<path d="M2670 280 l0 -130 25 0 c25 0 25 1 25 90 0 83 2 93 25 115 29 30 58
32 85 5 17 -17 20 -33 20 -115 0 -95 0 -95 25 -95 25 0 25 1 25 90 0 83 2 93
25 115 29 30 58 32 85 5 17 -17 20 -33 20 -115 l0 -95 26 0 26 0 -4 106 c-3
102 -4 107 -31 130 -34 29 -89 32 -133 5 -29 -18 -31 -18 -53 0 -28 23 -88 25
-119 3 -20 -14 -22 -14 -22 0 0 10 -9 16 -25 16 l-25 0 0 -130z"/>
<path d="M3140 240 l0 -170 25 0 c24 0 25 3 25 56 l0 55 26 -20 c78 -61 194
12 194 122 0 40 -35 96 -70 114 -38 19 -94 16 -124 -8 l-26 -20 0 20 c0 16 -6
21 -25 21 l-25 0 0 -170z m185 117 c49 -41 43 -138 -9 -172 -76 -50 -157 56
-110 146 26 51 78 62 119 26z"/>
<path d="M3508 403 c-10 -2 -18 -13 -18 -24 0 -16 4 -18 28 -12 73 21 132 0
132 -46 0 -13 -13 -16 -71 -16 -65 0 -73 -2 -95 -28 -34 -39 -31 -79 7 -111
36 -30 101 -35 137 -10 12 8 22 10 22 5 0 -6 11 -11 25 -11 25 0 25 1 25 89 0
106 -9 135 -49 156 -28 14 -104 19 -143 8z m111 -129 c23 -5 31 -12 31 -28 0
-56 -68 -92 -115 -62 -32 21 -33 59 -3 80 25 18 40 19 87 10z"/>
<path d="M3788 394 c-31 -17 -45 -55 -31 -87 6 -13 34 -31 74 -47 49 -19 65
-30 67 -47 5 -37 -37 -50 -92 -29 -25 10 -50 15 -56 11 -51 -32 97 -74 153
-43 76 40 58 110 -37 145 -61 22 -80 48 -51 69 13 10 30 13 50 8 48 -10 68
-10 72 2 5 14 -49 34 -91 34 -17 -1 -43 -7 -58 -16z"/>
<path d="M4038 394 c-31 -17 -45 -55 -31 -87 6 -13 34 -31 74 -47 49 -19 65
-30 67 -47 5 -37 -37 -50 -92 -29 -25 10 -50 15 -56 11 -51 -32 97 -74 153
-43 76 40 58 110 -37 145 -61 22 -80 48 -51 69 13 10 30 13 50 8 48 -10 68
-10 72 2 5 14 -49 34 -91 34 -17 -1 -43 -7 -58 -16z"/>
</g>
</svg>
